<?xml version="1.0" encoding="UTF-8" standalone="no"?>
<!DOCTYPE svg PUBLIC "-//W3C//DTD SVG 1.1//EN"
 "http://www.w3.org/Graphics/SVG/1.1/DTD/svg11.dtd">
<!-- Generated by graphviz version 2.38.0 (20140413.2041)
 -->
<!-- Title: controllers_diagram Pages: 1 -->
<svg width="1011pt" height="964pt"
 viewBox="0.00 0.00 1011.00 963.50" xmlns="http://www.w3.org/2000/svg" xmlns:xlink="http://www.w3.org/1999/xlink">
<g id="graph0" class="graph" transform="scale(1 1) rotate(0) translate(435.5 527.5)">
<title>controllers_diagram</title>
<polygon fill="none" stroke="none" points="-435.5,436 -435.5,-527.5 575.5,-527.5 575.5,436 -435.5,436"/>
<!-- _diagram_info -->
<g id="node1" class="node"><title>_diagram_info</title>
<text text-anchor="start" x="-298" y="242.4" font-family="Times,serif" font-size="13.00">Controllers diagram</text>
<text text-anchor="start" x="-298" y="256.4" font-family="Times,serif" font-size="13.00">Date: Jun 04 2018 &#45; 20:24</text>
<text text-anchor="start" x="-298" y="270.4" font-family="Times,serif" font-size="13.00">Migration version: 20180505174830</text>
<text text-anchor="start" x="-298" y="284.4" font-family="Times,serif" font-size="13.00">Generated by RailRoady 1.5.3</text>
<text text-anchor="start" x="-298" y="298.4" font-family="Times,serif" font-size="13.00">http://railroady.prestonlee.com</text>
</g>
<!-- AboutsController -->
<g id="node2" class="node"><title>AboutsController</title>
<path fill="none" stroke="black" d="M-348.5,161.5C-348.5,161.5 -261.5,161.5 -261.5,161.5 -255.5,161.5 -249.5,155.5 -249.5,149.5 -249.5,149.5 -249.5,50.5 -249.5,50.5 -249.5,44.5 -255.5,38.5 -261.5,38.5 -261.5,38.5 -348.5,38.5 -348.5,38.5 -354.5,38.5 -360.5,44.5 -360.5,50.5 -360.5,50.5 -360.5,149.5 -360.5,149.5 -360.5,155.5 -354.5,161.5 -348.5,161.5"/>
<text text-anchor="middle" x="-305" y="53.7" font-family="Times,serif" font-size="14.00">AboutsController</text>
<polyline fill="none" stroke="black" points="-360.5,61.5 -249.5,61.5 "/>
<text text-anchor="start" x="-352.5" y="76.7" font-family="Times,serif" font-size="14.00">about_program</text>
<text text-anchor="start" x="-352.5" y="91.7" font-family="Times,serif" font-size="14.00">about_us</text>
<text text-anchor="start" x="-352.5" y="106.7" font-family="Times,serif" font-size="14.00">for_holders</text>
<polyline fill="none" stroke="black" points="-360.5,114.5 -249.5,114.5 "/>
<polyline fill="none" stroke="black" points="-360.5,138.5 -249.5,138.5 "/>
<text text-anchor="start" x="-352.5" y="153.7" font-family="Times,serif" font-size="14.00">_layout</text>
</g>
<!-- Users::SessionsController -->
<g id="node3" class="node"><title>Users::SessionsController</title>
<path fill="none" stroke="black" d="M426.5,413C426.5,413 559.5,413 559.5,413 565.5,413 571.5,407 571.5,401 571.5,401 571.5,331 571.5,331 571.5,325 565.5,319 559.5,319 559.5,319 426.5,319 426.5,319 420.5,319 414.5,325 414.5,331 414.5,331 414.5,401 414.5,401 414.5,407 420.5,413 426.5,413"/>
<text text-anchor="middle" x="493" y="334.2" font-family="Times,serif" font-size="14.00">Users::SessionsController</text>
<polyline fill="none" stroke="black" points="414.5,342 571.5,342 "/>
<polyline fill="none" stroke="black" points="414.5,366 571.5,366 "/>
<polyline fill="none" stroke="black" points="414.5,390 571.5,390 "/>
<text text-anchor="start" x="422.5" y="405.2" font-family="Times,serif" font-size="14.00">_layout</text>
</g>
<!-- Users::OmniauthCallbacksController -->
<g id="node4" class="node"><title>Users::OmniauthCallbacksController</title>
<path fill="none" stroke="black" d="M246,233C246,233 440,233 440,233 446,233 452,227 452,221 452,221 452,107 452,107 452,101 446,95 440,95 440,95 246,95 246,95 240,95 234,101 234,107 234,107 234,221 234,221 234,227 240,233 246,233"/>
<text text-anchor="middle" x="343" y="110.2" font-family="Times,serif" font-size="14.00">Users::OmniauthCallbacksController</text>
<polyline fill="none" stroke="black" points="234,118 452,118 "/>
<text text-anchor="start" x="242" y="133.2" font-family="Times,serif" font-size="14.00">facebook</text>
<text text-anchor="start" x="242" y="148.2" font-family="Times,serif" font-size="14.00">failure</text>
<text text-anchor="start" x="242" y="163.2" font-family="Times,serif" font-size="14.00">github</text>
<text text-anchor="start" x="242" y="178.2" font-family="Times,serif" font-size="14.00">google_oauth2</text>
<polyline fill="none" stroke="black" points="234,186 452,186 "/>
<polyline fill="none" stroke="black" points="234,210 452,210 "/>
<text text-anchor="start" x="242" y="225.2" font-family="Times,serif" font-size="14.00">_layout</text>
</g>
<!-- Users::ConfirmationsController -->
<g id="node5" class="node"><title>Users::ConfirmationsController</title>
<path fill="none" stroke="black" d="M12.5,323C12.5,323 177.5,323 177.5,323 183.5,323 189.5,317 189.5,311 189.5,311 189.5,241 189.5,241 189.5,235 183.5,229 177.5,229 177.5,229 12.5,229 12.5,229 6.5,229 0.5,235 0.5,241 0.5,241 0.5,311 0.5,311 0.5,317 6.5,323 12.5,323"/>
<text text-anchor="middle" x="95" y="244.2" font-family="Times,serif" font-size="14.00">Users::ConfirmationsController</text>
<polyline fill="none" stroke="black" points="0.5,252 189.5,252 "/>
<polyline fill="none" stroke="black" points="0.5,276 189.5,276 "/>
<polyline fill="none" stroke="black" points="0.5,300 189.5,300 "/>
<text text-anchor="start" x="8.5" y="315.2" font-family="Times,serif" font-size="14.00">_layout</text>
</g>
<!-- Users::PasswordsController -->
<g id="node6" class="node"><title>Users::PasswordsController</title>
<path fill="none" stroke="black" d="M227.5,359C227.5,359 370.5,359 370.5,359 376.5,359 382.5,353 382.5,347 382.5,347 382.5,277 382.5,277 382.5,271 376.5,265 370.5,265 370.5,265 227.5,265 227.5,265 221.5,265 215.5,271 215.5,277 215.5,277 215.5,347 215.5,347 215.5,353 221.5,359 227.5,359"/>
<text text-anchor="middle" x="299" y="280.2" font-family="Times,serif" font-size="14.00">Users::PasswordsController</text>
<polyline fill="none" stroke="black" points="215.5,288 382.5,288 "/>
<polyline fill="none" stroke="black" points="215.5,312 382.5,312 "/>
<polyline fill="none" stroke="black" points="215.5,336 382.5,336 "/>
<text text-anchor="start" x="223.5" y="351.2" font-family="Times,serif" font-size="14.00">_layout</text>
</g>
<!-- Users::RegistrationsController -->
<g id="node7" class="node"><title>Users::RegistrationsController</title>
<path fill="none" stroke="black" d="M372,-360.5C372,-360.5 530,-360.5 530,-360.5 536,-360.5 542,-366.5 542,-372.5 542,-372.5 542,-441.5 542,-441.5 542,-447.5 536,-453.5 530,-453.5 530,-453.5 372,-453.5 372,-453.5 366,-453.5 360,-447.5 360,-441.5 360,-441.5 360,-372.5 360,-372.5 360,-366.5 366,-360.5 372,-360.5"/>
<text text-anchor="middle" x="451" y="-438.3" font-family="Times,serif" font-size="14.00">Users::RegistrationsController</text>
<polyline fill="none" stroke="black" points="360,-430.5 542,-430.5 "/>
<text text-anchor="start" x="368" y="-415.3" font-family="Times,serif" font-size="14.00">after_sign_up_path_for</text>
<polyline fill="none" stroke="black" points="360,-407.5 542,-407.5 "/>
<polyline fill="none" stroke="black" points="360,-383.5 542,-383.5 "/>
<text text-anchor="start" x="368" y="-368.3" font-family="Times,serif" font-size="14.00">_layout</text>
</g>
<!-- Users::UnlocksController -->
<g id="node8" class="node"><title>Users::UnlocksController</title>
<path fill="none" stroke="black" d="M426.5,-145C426.5,-145 557.5,-145 557.5,-145 563.5,-145 569.5,-151 569.5,-157 569.5,-157 569.5,-227 569.5,-227 569.5,-233 563.5,-239 557.5,-239 557.5,-239 426.5,-239 426.5,-239 420.5,-239 414.5,-233 414.5,-227 414.5,-227 414.5,-157 414.5,-157 414.5,-151 420.5,-145 426.5,-145"/>
<text text-anchor="middle" x="492" y="-223.8" font-family="Times,serif" font-size="14.00">Users::UnlocksController</text>
<polyline fill="none" stroke="black" points="414.5,-216 569.5,-216 "/>
<polyline fill="none" stroke="black" points="414.5,-192 569.5,-192 "/>
<polyline fill="none" stroke="black" points="414.5,-168 569.5,-168 "/>
<text text-anchor="start" x="422.5" y="-152.8" font-family="Times,serif" font-size="14.00">_layout</text>
</g>
<!-- MessagesController -->
<g id="node9" class="node"><title>MessagesController</title>
<path fill="none" stroke="black" d="M-402.5,-415C-402.5,-415 -301.5,-415 -301.5,-415 -295.5,-415 -289.5,-421 -289.5,-427 -289.5,-427 -289.5,-511 -289.5,-511 -289.5,-517 -295.5,-523 -301.5,-523 -301.5,-523 -402.5,-523 -402.5,-523 -408.5,-523 -414.5,-517 -414.5,-511 -414.5,-511 -414.5,-427 -414.5,-427 -414.5,-421 -408.5,-415 -402.5,-415"/>
<text text-anchor="middle" x="-352" y="-507.8" font-family="Times,serif" font-size="14.00">MessagesController</text>
<polyline fill="none" stroke="black" points="-414.5,-500 -289.5,-500 "/>
<text text-anchor="start" x="-406.5" y="-484.8" font-family="Times,serif" font-size="14.00">create</text>
<text text-anchor="start" x="-406.5" y="-469.8" font-family="Times,serif" font-size="14.00">new</text>
<polyline fill="none" stroke="black" points="-414.5,-462 -289.5,-462 "/>
<polyline fill="none" stroke="black" points="-414.5,-438 -289.5,-438 "/>
<text text-anchor="start" x="-406.5" y="-422.8" font-family="Times,serif" font-size="14.00">_layout</text>
</g>
<!-- ZhanrsController -->
<g id="node10" class="node"><title>ZhanrsController</title>
<path fill="none" stroke="black" d="M102,-288.5C102,-288.5 188,-288.5 188,-288.5 194,-288.5 200,-294.5 200,-300.5 200,-300.5 200,-489.5 200,-489.5 200,-495.5 194,-501.5 188,-501.5 188,-501.5 102,-501.5 102,-501.5 96,-501.5 90,-495.5 90,-489.5 90,-489.5 90,-300.5 90,-300.5 90,-294.5 96,-288.5 102,-288.5"/>
<text text-anchor="middle" x="145" y="-486.3" font-family="Times,serif" font-size="14.00">ZhanrsController</text>
<polyline fill="none" stroke="black" points="90,-478.5 200,-478.5 "/>
<text text-anchor="start" x="98" y="-463.3" font-family="Times,serif" font-size="14.00">create</text>
<text text-anchor="start" x="98" y="-448.3" font-family="Times,serif" font-size="14.00">destroy</text>
<text text-anchor="start" x="98" y="-433.3" font-family="Times,serif" font-size="14.00">edit</text>
<text text-anchor="start" x="98" y="-418.3" font-family="Times,serif" font-size="14.00">index</text>
<text text-anchor="start" x="98" y="-403.3" font-family="Times,serif" font-size="14.00">new</text>
<text text-anchor="start" x="98" y="-388.3" font-family="Times,serif" font-size="14.00">show</text>
<text text-anchor="start" x="98" y="-373.3" font-family="Times,serif" font-size="14.00">update</text>
<polyline fill="none" stroke="black" points="90,-365.5 200,-365.5 "/>
<polyline fill="none" stroke="black" points="90,-341.5 200,-341.5 "/>
<text text-anchor="start" x="98" y="-326.3" font-family="Times,serif" font-size="14.00">_layout</text>
<text text-anchor="start" x="98" y="-311.3" font-family="Times,serif" font-size="14.00">set_zhanr</text>
<text text-anchor="start" x="98" y="-296.3" font-family="Times,serif" font-size="14.00">zhanr_params</text>
</g>
<!-- BooksController -->
<g id="node11" class="node"><title>BooksController</title>
<path fill="none" stroke="black" d="M101.5,89.5C101.5,89.5 184.5,89.5 184.5,89.5 190.5,89.5 196.5,83.5 196.5,77.5 196.5,77.5 196.5,-231.5 196.5,-231.5 196.5,-237.5 190.5,-243.5 184.5,-243.5 184.5,-243.5 101.5,-243.5 101.5,-243.5 95.5,-243.5 89.5,-237.5 89.5,-231.5 89.5,-231.5 89.5,77.5 89.5,77.5 89.5,83.5 95.5,89.5 101.5,89.5"/>
<text text-anchor="middle" x="143" y="-228.3" font-family="Times,serif" font-size="14.00">BooksController</text>
<polyline fill="none" stroke="black" points="89.5,-220.5 196.5,-220.5 "/>
<text text-anchor="start" x="97.5" y="-205.3" font-family="Times,serif" font-size="14.00">create</text>
<text text-anchor="start" x="97.5" y="-190.3" font-family="Times,serif" font-size="14.00">destroy</text>
<text text-anchor="start" x="97.5" y="-175.3" font-family="Times,serif" font-size="14.00">dislike</text>
<text text-anchor="start" x="97.5" y="-160.3" font-family="Times,serif" font-size="14.00">downl</text>
<text text-anchor="start" x="97.5" y="-145.3" font-family="Times,serif" font-size="14.00">edit</text>
<text text-anchor="start" x="97.5" y="-130.3" font-family="Times,serif" font-size="14.00">index</text>
<text text-anchor="start" x="97.5" y="-115.3" font-family="Times,serif" font-size="14.00">like</text>
<text text-anchor="start" x="97.5" y="-100.3" font-family="Times,serif" font-size="14.00">listen</text>
<text text-anchor="start" x="97.5" y="-85.3" font-family="Times,serif" font-size="14.00">new</text>
<text text-anchor="start" x="97.5" y="-70.3" font-family="Times,serif" font-size="14.00">read</text>
<text text-anchor="start" x="97.5" y="-55.3" font-family="Times,serif" font-size="14.00">show</text>
<text text-anchor="start" x="97.5" y="-40.3" font-family="Times,serif" font-size="14.00">update</text>
<polyline fill="none" stroke="black" points="89.5,-32.5 196.5,-32.5 "/>
<polyline fill="none" stroke="black" points="89.5,-8.5 196.5,-8.5 "/>
<text text-anchor="start" x="97.5" y="6.7" font-family="Times,serif" font-size="14.00">_layout</text>
<text text-anchor="start" x="97.5" y="21.7" font-family="Times,serif" font-size="14.00">book_params</text>
<text text-anchor="start" x="97.5" y="36.7" font-family="Times,serif" font-size="14.00">find_book</text>
<text text-anchor="start" x="97.5" y="51.7" font-family="Times,serif" font-size="14.00">set_book</text>
<text text-anchor="start" x="97.5" y="66.7" font-family="Times,serif" font-size="14.00">sort_column</text>
<text text-anchor="start" x="97.5" y="81.7" font-family="Times,serif" font-size="14.00">sort_direction</text>
</g>
<!-- HomeController -->
<g id="node12" class="node"><title>HomeController</title>
<path fill="none" stroke="black" d="M-384,-271C-384,-271 -302,-271 -302,-271 -296,-271 -290,-277 -290,-283 -290,-283 -290,-367 -290,-367 -290,-373 -296,-379 -302,-379 -302,-379 -384,-379 -384,-379 -390,-379 -396,-373 -396,-367 -396,-367 -396,-283 -396,-283 -396,-277 -390,-271 -384,-271"/>
<text text-anchor="middle" x="-343" y="-363.8" font-family="Times,serif" font-size="14.00">HomeController</text>
<polyline fill="none" stroke="black" points="-396,-356 -290,-356 "/>
<text text-anchor="start" x="-388" y="-340.8" font-family="Times,serif" font-size="14.00">index</text>
<text text-anchor="start" x="-388" y="-325.8" font-family="Times,serif" font-size="14.00">show</text>
<polyline fill="none" stroke="black" points="-396,-318 -290,-318 "/>
<polyline fill="none" stroke="black" points="-396,-294 -290,-294 "/>
<text text-anchor="start" x="-388" y="-278.8" font-family="Times,serif" font-size="14.00">_layout</text>
</g>
<!-- KriticsController -->
<g id="node13" class="node"><title>KriticsController</title>
<path fill="none" stroke="black" d="M-203.5,89C-203.5,89 -118.5,89 -118.5,89 -112.5,89 -106.5,83 -106.5,77 -106.5,77 -106.5,-157 -106.5,-157 -106.5,-163 -112.5,-169 -118.5,-169 -118.5,-169 -203.5,-169 -203.5,-169 -209.5,-169 -215.5,-163 -215.5,-157 -215.5,-157 -215.5,77 -215.5,77 -215.5,83 -209.5,89 -203.5,89"/>
<text text-anchor="middle" x="-161" y="-153.8" font-family="Times,serif" font-size="14.00">KriticsController</text>
<polyline fill="none" stroke="black" points="-215.5,-146 -106.5,-146 "/>
<text text-anchor="start" x="-207.5" y="-130.8" font-family="Times,serif" font-size="14.00">create</text>
<text text-anchor="start" x="-207.5" y="-115.8" font-family="Times,serif" font-size="14.00">destroy</text>
<text text-anchor="start" x="-207.5" y="-100.8" font-family="Times,serif" font-size="14.00">dislike</text>
<text text-anchor="start" x="-207.5" y="-85.8" font-family="Times,serif" font-size="14.00">edit</text>
<text text-anchor="start" x="-207.5" y="-70.8" font-family="Times,serif" font-size="14.00">index</text>
<text text-anchor="start" x="-207.5" y="-55.8" font-family="Times,serif" font-size="14.00">like</text>
<text text-anchor="start" x="-207.5" y="-40.8" font-family="Times,serif" font-size="14.00">new</text>
<text text-anchor="start" x="-207.5" y="-25.8" font-family="Times,serif" font-size="14.00">show</text>
<text text-anchor="start" x="-207.5" y="-10.8" font-family="Times,serif" font-size="14.00">update</text>
<polyline fill="none" stroke="black" points="-215.5,-3 -106.5,-3 "/>
<polyline fill="none" stroke="black" points="-215.5,21 -106.5,21 "/>
<text text-anchor="start" x="-207.5" y="36.2" font-family="Times,serif" font-size="14.00">_layout</text>
<text text-anchor="start" x="-207.5" y="51.2" font-family="Times,serif" font-size="14.00">find_kritic</text>
<text text-anchor="start" x="-207.5" y="66.2" font-family="Times,serif" font-size="14.00">kritic_params</text>
<text text-anchor="start" x="-207.5" y="81.2" font-family="Times,serif" font-size="14.00">set_kritic</text>
</g>
<!-- VidguksController -->
<g id="node14" class="node"><title>VidguksController</title>
<path fill="none" stroke="black" d="M-60,197C-60,197 38,197 38,197 44,197 50,191 50,185 50,185 50,-153 50,-153 50,-159 44,-165 38,-165 38,-165 -60,-165 -60,-165 -66,-165 -72,-159 -72,-153 -72,-153 -72,185 -72,185 -72,191 -66,197 -60,197"/>
<text text-anchor="middle" x="-11" y="-149.8" font-family="Times,serif" font-size="14.00">VidguksController</text>
<polyline fill="none" stroke="black" points="-72,-142 50,-142 "/>
<text text-anchor="start" x="-64" y="-126.8" font-family="Times,serif" font-size="14.00">create</text>
<text text-anchor="start" x="-64" y="-111.8" font-family="Times,serif" font-size="14.00">destroy</text>
<text text-anchor="start" x="-64" y="-96.8" font-family="Times,serif" font-size="14.00">dislike</text>
<text text-anchor="start" x="-64" y="-81.8" font-family="Times,serif" font-size="14.00">edit</text>
<text text-anchor="start" x="-64" y="-66.8" font-family="Times,serif" font-size="14.00">index</text>
<text text-anchor="start" x="-64" y="-51.8" font-family="Times,serif" font-size="14.00">like</text>
<text text-anchor="start" x="-64" y="-36.8" font-family="Times,serif" font-size="14.00">new</text>
<text text-anchor="start" x="-64" y="-21.8" font-family="Times,serif" font-size="14.00">show</text>
<text text-anchor="start" x="-64" y="-6.8" font-family="Times,serif" font-size="14.00">update</text>
<polyline fill="none" stroke="black" points="-72,1 50,1 "/>
<text text-anchor="start" x="-64" y="16.2" font-family="Times,serif" font-size="14.00">collection_path</text>
<text text-anchor="start" x="-64" y="31.2" font-family="Times,serif" font-size="14.00">collection_url</text>
<text text-anchor="start" x="-64" y="46.2" font-family="Times,serif" font-size="14.00">edit_resource_path</text>
<text text-anchor="start" x="-64" y="61.2" font-family="Times,serif" font-size="14.00">edit_resource_url</text>
<text text-anchor="start" x="-64" y="76.2" font-family="Times,serif" font-size="14.00">new_resource_path</text>
<text text-anchor="start" x="-64" y="91.2" font-family="Times,serif" font-size="14.00">new_resource_url</text>
<text text-anchor="start" x="-64" y="106.2" font-family="Times,serif" font-size="14.00">resource_path</text>
<text text-anchor="start" x="-64" y="121.2" font-family="Times,serif" font-size="14.00">resource_url</text>
<polyline fill="none" stroke="black" points="-72,129 50,129 "/>
<text text-anchor="start" x="-64" y="144.2" font-family="Times,serif" font-size="14.00">_layout</text>
<text text-anchor="start" x="-64" y="159.2" font-family="Times,serif" font-size="14.00">find_kritic</text>
<text text-anchor="start" x="-64" y="174.2" font-family="Times,serif" font-size="14.00">set_vidguk</text>
<text text-anchor="start" x="-64" y="189.2" font-family="Times,serif" font-size="14.00">vidguk_params</text>
</g>
<!-- IndexController -->
<g id="node15" class="node"><title>IndexController</title>
<path fill="none" stroke="black" d="M-419.5,431.5C-419.5,431.5 -340.5,431.5 -340.5,431.5 -334.5,431.5 -328.5,425.5 -328.5,419.5 -328.5,419.5 -328.5,350.5 -328.5,350.5 -328.5,344.5 -334.5,338.5 -340.5,338.5 -340.5,338.5 -419.5,338.5 -419.5,338.5 -425.5,338.5 -431.5,344.5 -431.5,350.5 -431.5,350.5 -431.5,419.5 -431.5,419.5 -431.5,425.5 -425.5,431.5 -419.5,431.5"/>
<text text-anchor="middle" x="-380" y="353.7" font-family="Times,serif" font-size="14.00">IndexController</text>
<polyline fill="none" stroke="black" points="-431.5,361.5 -328.5,361.5 "/>
<text text-anchor="start" x="-423.5" y="376.7" font-family="Times,serif" font-size="14.00">index</text>
<polyline fill="none" stroke="black" points="-431.5,384.5 -328.5,384.5 "/>
<polyline fill="none" stroke="black" points="-431.5,408.5 -328.5,408.5 "/>
<text text-anchor="start" x="-423.5" y="423.7" font-family="Times,serif" font-size="14.00">_layout</text>
</g>
<!-- ApplicationController -->
<g id="node16" class="node"><title>ApplicationController</title>
<path fill="none" stroke="black" d="M246.5,53.5C246.5,53.5 415.5,53.5 415.5,53.5 421.5,53.5 427.5,47.5 427.5,41.5 427.5,41.5 427.5,-87.5 427.5,-87.5 427.5,-93.5 421.5,-99.5 415.5,-99.5 415.5,-99.5 246.5,-99.5 246.5,-99.5 240.5,-99.5 234.5,-93.5 234.5,-87.5 234.5,-87.5 234.5,41.5 234.5,41.5 234.5,47.5 240.5,53.5 246.5,53.5"/>
<text text-anchor="middle" x="331" y="-84.3" font-family="Times,serif" font-size="14.00">ApplicationController</text>
<polyline fill="none" stroke="black" points="234.5,-76.5 427.5,-76.5 "/>
<text text-anchor="start" x="242.5" y="-61.3" font-family="Times,serif" font-size="14.00">redirect_back_or</text>
<text text-anchor="start" x="242.5" y="-46.3" font-family="Times,serif" font-size="14.00">set_locale</text>
<polyline fill="none" stroke="black" points="234.5,-38.5 427.5,-38.5 "/>
<polyline fill="none" stroke="black" points="234.5,-14.5 427.5,-14.5 "/>
<text text-anchor="start" x="242.5" y="0.7" font-family="Times,serif" font-size="14.00">_layout</text>
<text text-anchor="start" x="242.5" y="15.7" font-family="Times,serif" font-size="14.00">default_url_options</text>
<text text-anchor="start" x="242.5" y="30.7" font-family="Times,serif" font-size="14.00">extract_locale_from_subdomain</text>
<text text-anchor="start" x="242.5" y="45.7" font-family="Times,serif" font-size="14.00">extract_locale_from_tld</text>
</g>
<!-- ConversationsController -->
<g id="node17" class="node"><title>ConversationsController</title>
<path fill="none" stroke="black" d="M-78.5,-199C-78.5,-199 46.5,-199 46.5,-199 52.5,-199 58.5,-205 58.5,-211 58.5,-211 58.5,-415 58.5,-415 58.5,-421 52.5,-427 46.5,-427 46.5,-427 -78.5,-427 -78.5,-427 -84.5,-427 -90.5,-421 -90.5,-415 -90.5,-415 -90.5,-211 -90.5,-211 -90.5,-205 -84.5,-199 -78.5,-199"/>
<text text-anchor="middle" x="-16" y="-411.8" font-family="Times,serif" font-size="14.00">ConversationsController</text>
<polyline fill="none" stroke="black" points="-90.5,-404 58.5,-404 "/>
<text text-anchor="start" x="-82.5" y="-388.8" font-family="Times,serif" font-size="14.00">destroy</text>
<text text-anchor="start" x="-82.5" y="-373.8" font-family="Times,serif" font-size="14.00">empty_trash</text>
<text text-anchor="start" x="-82.5" y="-358.8" font-family="Times,serif" font-size="14.00">index</text>
<text text-anchor="start" x="-82.5" y="-343.8" font-family="Times,serif" font-size="14.00">mark_as_read</text>
<text text-anchor="start" x="-82.5" y="-328.8" font-family="Times,serif" font-size="14.00">reply</text>
<text text-anchor="start" x="-82.5" y="-313.8" font-family="Times,serif" font-size="14.00">restore</text>
<text text-anchor="start" x="-82.5" y="-298.8" font-family="Times,serif" font-size="14.00">show</text>
<polyline fill="none" stroke="black" points="-90.5,-291 58.5,-291 "/>
<polyline fill="none" stroke="black" points="-90.5,-267 58.5,-267 "/>
<text text-anchor="start" x="-82.5" y="-251.8" font-family="Times,serif" font-size="14.00">_layout</text>
<text text-anchor="start" x="-82.5" y="-236.8" font-family="Times,serif" font-size="14.00">get_box</text>
<text text-anchor="start" x="-82.5" y="-221.8" font-family="Times,serif" font-size="14.00">get_conversation</text>
<text text-anchor="start" x="-82.5" y="-206.8" font-family="Times,serif" font-size="14.00">get_mailbox</text>
</g>
<!-- UserparamsController -->
<g id="node18" class="node"><title>UserparamsController</title>
<path fill="none" stroke="black" d="M246.5,-144.5C246.5,-144.5 359.5,-144.5 359.5,-144.5 365.5,-144.5 371.5,-150.5 371.5,-156.5 371.5,-156.5 371.5,-315.5 371.5,-315.5 371.5,-321.5 365.5,-327.5 359.5,-327.5 359.5,-327.5 246.5,-327.5 246.5,-327.5 240.5,-327.5 234.5,-321.5 234.5,-315.5 234.5,-315.5 234.5,-156.5 234.5,-156.5 234.5,-150.5 240.5,-144.5 246.5,-144.5"/>
<text text-anchor="middle" x="303" y="-312.3" font-family="Times,serif" font-size="14.00">UserparamsController</text>
<polyline fill="none" stroke="black" points="234.5,-304.5 371.5,-304.5 "/>
<text text-anchor="start" x="242.5" y="-289.3" font-family="Times,serif" font-size="14.00">create</text>
<text text-anchor="start" x="242.5" y="-274.3" font-family="Times,serif" font-size="14.00">edit</text>
<text text-anchor="start" x="242.5" y="-259.3" font-family="Times,serif" font-size="14.00">my_books</text>
<text text-anchor="start" x="242.5" y="-244.3" font-family="Times,serif" font-size="14.00">new</text>
<text text-anchor="start" x="242.5" y="-229.3" font-family="Times,serif" font-size="14.00">profile</text>
<text text-anchor="start" x="242.5" y="-214.3" font-family="Times,serif" font-size="14.00">update</text>
<polyline fill="none" stroke="black" points="234.5,-206.5 371.5,-206.5 "/>
<polyline fill="none" stroke="black" points="234.5,-182.5 371.5,-182.5 "/>
<text text-anchor="start" x="242.5" y="-167.3" font-family="Times,serif" font-size="14.00">_layout</text>
<text text-anchor="start" x="242.5" y="-152.3" font-family="Times,serif" font-size="14.00">user_params</text>
</g>
<!-- LineItemsController -->
<g id="node19" class="node"><title>LineItemsController</title>
<path fill="none" stroke="black" d="M-240,-252.5C-240,-252.5 -136,-252.5 -136,-252.5 -130,-252.5 -124,-258.5 -124,-264.5 -124,-264.5 -124,-453.5 -124,-453.5 -124,-459.5 -130,-465.5 -136,-465.5 -136,-465.5 -240,-465.5 -240,-465.5 -246,-465.5 -252,-459.5 -252,-453.5 -252,-453.5 -252,-264.5 -252,-264.5 -252,-258.5 -246,-252.5 -240,-252.5"/>
<text text-anchor="middle" x="-188" y="-450.3" font-family="Times,serif" font-size="14.00">LineItemsController</text>
<polyline fill="none" stroke="black" points="-252,-442.5 -124,-442.5 "/>
<text text-anchor="start" x="-244" y="-427.3" font-family="Times,serif" font-size="14.00">create</text>
<text text-anchor="start" x="-244" y="-412.3" font-family="Times,serif" font-size="14.00">destroy</text>
<text text-anchor="start" x="-244" y="-397.3" font-family="Times,serif" font-size="14.00">edit</text>
<text text-anchor="start" x="-244" y="-382.3" font-family="Times,serif" font-size="14.00">index</text>
<text text-anchor="start" x="-244" y="-367.3" font-family="Times,serif" font-size="14.00">new</text>
<text text-anchor="start" x="-244" y="-352.3" font-family="Times,serif" font-size="14.00">show</text>
<text text-anchor="start" x="-244" y="-337.3" font-family="Times,serif" font-size="14.00">update</text>
<polyline fill="none" stroke="black" points="-252,-329.5 -124,-329.5 "/>
<polyline fill="none" stroke="black" points="-252,-305.5 -124,-305.5 "/>
<text text-anchor="start" x="-244" y="-290.3" font-family="Times,serif" font-size="14.00">_layout</text>
<text text-anchor="start" x="-244" y="-275.3" font-family="Times,serif" font-size="14.00">line_item_params</text>
<text text-anchor="start" x="-244" y="-260.3" font-family="Times,serif" font-size="14.00">set_line_item</text>
</g>
<!-- AuthsController -->
<g id="node20" class="node"><title>AuthsController</title>
<path fill="none" stroke="black" d="M-348,-0.5C-348,-0.5 -268,-0.5 -268,-0.5 -262,-0.5 -256,-6.5 -256,-12.5 -256,-12.5 -256,-171.5 -256,-171.5 -256,-177.5 -262,-183.5 -268,-183.5 -268,-183.5 -348,-183.5 -348,-183.5 -354,-183.5 -360,-177.5 -360,-171.5 -360,-171.5 -360,-12.5 -360,-12.5 -360,-6.5 -354,-0.5 -348,-0.5"/>
<text text-anchor="middle" x="-308" y="-168.3" font-family="Times,serif" font-size="14.00">AuthsController</text>
<polyline fill="none" stroke="black" points="-360,-160.5 -256,-160.5 "/>
<text text-anchor="start" x="-352" y="-145.3" font-family="Times,serif" font-size="14.00">dislike</text>
<text text-anchor="start" x="-352" y="-130.3" font-family="Times,serif" font-size="14.00">index</text>
<text text-anchor="start" x="-352" y="-115.3" font-family="Times,serif" font-size="14.00">like</text>
<text text-anchor="start" x="-352" y="-100.3" font-family="Times,serif" font-size="14.00">show</text>
<polyline fill="none" stroke="black" points="-360,-92.5 -256,-92.5 "/>
<polyline fill="none" stroke="black" points="-360,-68.5 -256,-68.5 "/>
<text text-anchor="start" x="-352" y="-53.3" font-family="Times,serif" font-size="14.00">_layout</text>
<text text-anchor="start" x="-352" y="-38.3" font-family="Times,serif" font-size="14.00">auth_params</text>
<text text-anchor="start" x="-352" y="-23.3" font-family="Times,serif" font-size="14.00">find_auth</text>
<text text-anchor="start" x="-352" y="-8.3" font-family="Times,serif" font-size="14.00">set_auth</text>
</g>
</g>
</svg>
