<?xml version="1.0" encoding="UTF-8" standalone="no"?>
<!DOCTYPE svg PUBLIC "-//W3C//DTD SVG 1.1//EN"
 "http://www.w3.org/Graphics/SVG/1.1/DTD/svg11.dtd">
<!-- Generated by graphviz version 2.38.0 (20140413.2041)
 -->
<!-- Title: models_diagram Pages: 1 -->
<svg width="1153pt" height="368pt"
 viewBox="0.00 0.00 1152.55 368.00" xmlns="http://www.w3.org/2000/svg" xmlns:xlink="http://www.w3.org/1999/xlink">
<g id="graph0" class="graph" transform="scale(1 1) rotate(0) translate(4 364)">
<title>models_diagram</title>
<polygon fill="none" stroke="none" points="-4,4 -4,-364 1148.55,-364 1148.55,4 -4,4"/>
<!-- _diagram_info -->
<g id="node1" class="node"><title>_diagram_info</title>
<text text-anchor="start" x="8" y="-345.6" font-family="Times,serif" font-size="13.00">Models diagram</text>
<text text-anchor="start" x="8" y="-331.6" font-family="Times,serif" font-size="13.00">Date: Jun 04 2018 &#45; 20:24</text>
<text text-anchor="start" x="8" y="-317.6" font-family="Times,serif" font-size="13.00">Migration version: 20180505174830</text>
<text text-anchor="start" x="8" y="-303.6" font-family="Times,serif" font-size="13.00">Generated by RailRoady 1.5.3</text>
<text text-anchor="start" x="8" y="-289.6" font-family="Times,serif" font-size="13.00">http://railroady.prestonlee.com</text>
</g>
<!-- Auth -->
<g id="node2" class="node"><title>Auth</title>
<ellipse fill="none" stroke="black" cx="242" cy="-105" rx="28.6953" ry="18"/>
<text text-anchor="middle" x="242" y="-101.3" font-family="Times,serif" font-size="14.00">Auth</text>
</g>
<!-- ActsAsVotable::Vote -->
<g id="node13" class="node"><title>ActsAsVotable::Vote</title>
<ellipse fill="none" stroke="black" cx="393" cy="-18" rx="86.3847" ry="18"/>
<text text-anchor="middle" x="393" y="-14.3" font-family="Times,serif" font-size="14.00">ActsAsVotable::Vote</text>
</g>
<!-- Auth&#45;&gt;ActsAsVotable::Vote -->
<g id="edge1" class="edge"><title>Auth&#45;&gt;ActsAsVotable::Vote</title>
<path fill="none" stroke="#ba89ba" d="M236.593,-78.8421C236.147,-70.1344 237.451,-60.8512 243,-54 252.073,-42.7982 280.108,-34.8239 309.525,-29.3454"/>
<ellipse fill="none" stroke="#ba89ba" cx="237.041" cy="-82.94" rx="4.00001" ry="4.00001"/>
<polygon fill="#ba89ba" stroke="#ba89ba" points="309.68,-29.3181 320.309,-32.0137 314.604,-28.45 319.528,-27.582 319.528,-27.582 319.528,-27.582 314.604,-28.45 318.747,-23.1504 309.68,-29.3181 309.68,-29.3181"/>
<text text-anchor="middle" x="269" y="-57.8" font-family="Times,serif" font-size="14.00">votes_for</text>
</g>
<!-- AdminUser -->
<g id="node3" class="node"><title>AdminUser</title>
<ellipse fill="none" stroke="black" cx="669" cy="-321" rx="51.9908" ry="18"/>
<text text-anchor="middle" x="669" y="-317.3" font-family="Times,serif" font-size="14.00">AdminUser</text>
</g>
<!-- User -->
<g id="node4" class="node"><title>User</title>
<ellipse fill="none" stroke="black" cx="259" cy="-321" rx="27.0966" ry="18"/>
<text text-anchor="middle" x="259" y="-317.3" font-family="Times,serif" font-size="14.00">User</text>
</g>
<!-- Book -->
<g id="node7" class="node"><title>Book</title>
<ellipse fill="none" stroke="black" cx="567" cy="-213" rx="29.795" ry="18"/>
<text text-anchor="middle" x="567" y="-209.3" font-family="Times,serif" font-size="14.00">Book</text>
</g>
<!-- User&#45;&gt;Book -->
<g id="edge4" class="edge"><title>User&#45;&gt;Book</title>
<path fill="none" stroke="#bded8e" d="M291.074,-310.431C341.842,-295.052 443.61,-263.275 528,-231 530.074,-230.207 532.199,-229.365 534.334,-228.498"/>
<ellipse fill="none" stroke="#bded8e" cx="287.204" cy="-311.6" rx="4.00001" ry="4.00001"/>
<polygon fill="#bded8e" stroke="#bded8e" points="534.411,-228.466 545.373,-228.749 539.022,-226.533 543.633,-224.599 543.633,-224.599 543.633,-224.599 539.022,-226.533 541.893,-220.449 534.411,-228.466 534.411,-228.466"/>
</g>
<!-- Userparam -->
<g id="node8" class="node"><title>Userparam</title>
<ellipse fill="none" stroke="black" cx="82" cy="-159" rx="50.0912" ry="18"/>
<text text-anchor="middle" x="82" y="-155.3" font-family="Times,serif" font-size="14.00">Userparam</text>
</g>
<!-- User&#45;&gt;Userparam -->
<g id="edge6" class="edge"><title>User&#45;&gt;Userparam</title>
<path fill="none" stroke="#44dc36" d="M242.798,-298.373C237.171,-292.221 230.397,-286.088 223,-282 187.298,-262.268 165.322,-288.886 133,-264 107.629,-244.466 94.0885,-208.998 87.4771,-184.975"/>
<ellipse fill="none" stroke="#44dc36" cx="245.417" cy="-301.423" rx="4.00002" ry="4.00002"/>
<ellipse fill="#44dc36" stroke="#44dc36" cx="86.4188" cy="-180.872" rx="4.00001" ry="4.00001"/>
</g>
<!-- Vidguk -->
<g id="node9" class="node"><title>Vidguk</title>
<ellipse fill="none" stroke="black" cx="393" cy="-105" rx="37.0935" ry="18"/>
<text text-anchor="middle" x="393" y="-101.3" font-family="Times,serif" font-size="14.00">Vidguk</text>
</g>
<!-- User&#45;&gt;Vidguk -->
<g id="edge5" class="edge"><title>User&#45;&gt;Vidguk</title>
<path fill="none" stroke="#ca8b54" d="M239.996,-299.32C234.596,-293.616 228.647,-287.489 223,-282 198.623,-258.308 179.875,-262.033 166,-231 159.469,-216.394 156.968,-208.207 166,-195 215.805,-122.172 268.995,-155.552 351,-123 352.608,-122.361 354.251,-121.707 355.909,-121.045"/>
<ellipse fill="none" stroke="#ca8b54" cx="242.862" cy="-302.376" rx="4.00002" ry="4.00002"/>
<polygon fill="#ca8b54" stroke="#ca8b54" points="356.179,-120.936 367.136,-121.385 360.819,-119.073 365.459,-117.209 365.459,-117.209 365.459,-117.209 360.819,-119.073 363.782,-113.033 356.179,-120.936 356.179,-120.936"/>
</g>
<!-- Mailboxer::Message -->
<g id="node14" class="node"><title>Mailboxer::Message</title>
<ellipse fill="none" stroke="black" cx="259" cy="-213" rx="83.6854" ry="18"/>
<text text-anchor="middle" x="259" y="-209.3" font-family="Times,serif" font-size="14.00">Mailboxer::Message</text>
</g>
<!-- User&#45;&gt;Mailboxer::Message -->
<g id="edge2" class="edge"><title>User&#45;&gt;Mailboxer::Message</title>
<path fill="none" stroke="#c38446" d="M259,-294.795C259,-278.735 259,-257.927 259,-241.45"/>
<ellipse fill="none" stroke="#c38446" cx="259" cy="-298.969" rx="4" ry="4"/>
<polygon fill="#c38446" stroke="#c38446" points="259,-241.341 263.5,-231.341 259,-236.341 259,-231.341 259,-231.341 259,-231.341 259,-236.341 254.5,-231.341 259,-241.341 259,-241.341"/>
<text text-anchor="middle" x="285" y="-252.8" font-family="Times,serif" font-size="14.00">messages</text>
</g>
<!-- Mailboxer::Receipt -->
<g id="node15" class="node"><title>Mailboxer::Receipt</title>
<ellipse fill="none" stroke="black" cx="440" cy="-213" rx="79.0865" ry="18"/>
<text text-anchor="middle" x="440" y="-209.3" font-family="Times,serif" font-size="14.00">Mailboxer::Receipt</text>
</g>
<!-- User&#45;&gt;Mailboxer::Receipt -->
<g id="edge3" class="edge"><title>User&#45;&gt;Mailboxer::Receipt</title>
<path fill="none" stroke="#23ca89" d="M286.014,-304.18C317.311,-285.851 369.02,-255.569 403.782,-235.211"/>
<ellipse fill="none" stroke="#23ca89" cx="282.166" cy="-306.433" rx="4.00002" ry="4.00002"/>
<polygon fill="#23ca89" stroke="#23ca89" points="404.039,-235.06 414.942,-233.89 408.354,-232.533 412.668,-230.006 412.668,-230.006 412.668,-230.006 408.354,-232.533 410.394,-226.123 404.039,-235.06 404.039,-235.06"/>
<text text-anchor="middle" x="398.5" y="-252.8" font-family="Times,serif" font-size="14.00">receipts</text>
</g>
<!-- AboutProgram -->
<g id="node5" class="node"><title>AboutProgram</title>
<ellipse fill="none" stroke="black" cx="803" cy="-321" rx="63.8893" ry="18"/>
<text text-anchor="middle" x="803" y="-317.3" font-family="Times,serif" font-size="14.00">AboutProgram</text>
</g>
<!-- ApplicationRecord -->
<g id="node6" class="node"><title>ApplicationRecord</title>
<ellipse fill="none" stroke="black" cx="962" cy="-321" rx="77.1866" ry="18"/>
<text text-anchor="middle" x="962" y="-317.3" font-family="Times,serif" font-size="14.00">ApplicationRecord</text>
</g>
<!-- Book&#45;&gt;Vidguk -->
<g id="edge8" class="edge"><title>Book&#45;&gt;Vidguk</title>
<path fill="none" stroke="#0dcda4" d="M536.625,-198.143C533.736,-197.012 530.829,-195.943 528,-195 495.07,-184.021 481.502,-195.291 452,-177 433.668,-165.634 418.304,-146.595 407.855,-131.093"/>
<ellipse fill="none" stroke="#0dcda4" cx="540.469" cy="-199.72" rx="4.00001" ry="4.00001"/>
<polygon fill="#0dcda4" stroke="#0dcda4" points="407.705,-130.862 406.066,-120.019 404.995,-126.66 402.285,-122.458 402.285,-122.458 402.285,-122.458 404.995,-126.66 398.503,-124.898 407.705,-130.862 407.705,-130.862"/>
</g>
<!-- Kritic -->
<g id="node10" class="node"><title>Kritic</title>
<ellipse fill="none" stroke="black" cx="567" cy="-105" rx="31.3957" ry="18"/>
<text text-anchor="middle" x="567" y="-101.3" font-family="Times,serif" font-size="14.00">Kritic</text>
</g>
<!-- Book&#45;&gt;Kritic -->
<g id="edge9" class="edge"><title>Book&#45;&gt;Kritic</title>
<path fill="none" stroke="#472de9" d="M567,-186.795C567,-170.735 567,-149.927 567,-133.45"/>
<ellipse fill="none" stroke="#472de9" cx="567" cy="-190.969" rx="4" ry="4"/>
<polygon fill="#472de9" stroke="#472de9" points="567,-133.341 571.5,-123.341 567,-128.341 567,-123.341 567,-123.341 567,-123.341 567,-128.341 562.5,-123.341 567,-133.341 567,-133.341"/>
</g>
<!-- Book&#45;&gt;ActsAsVotable::Vote -->
<g id="edge7" class="edge"><title>Book&#45;&gt;ActsAsVotable::Vote</title>
<path fill="none" stroke="#300dec" d="M542.437,-193.419C522.003,-176.866 493.385,-150.99 475,-123 457.008,-95.6087 469.766,-79.3524 449,-54 444.9,-48.9943 439.886,-44.4947 434.56,-40.5212"/>
<ellipse fill="none" stroke="#300dec" cx="545.632" cy="-195.964" rx="4.00002" ry="4.00002"/>
<polygon fill="#300dec" stroke="#300dec" points="434.29,-40.3374 428.552,-30.9924 430.156,-37.5253 426.021,-34.7133 426.021,-34.7133 426.021,-34.7133 430.156,-37.5253 423.49,-38.4341 434.29,-40.3374 434.29,-40.3374"/>
<text text-anchor="middle" x="501" y="-101.3" font-family="Times,serif" font-size="14.00">votes_for</text>
</g>
<!-- Userparam&#45;&gt;ActsAsVotable::Vote -->
<g id="edge10" class="edge"><title>Userparam&#45;&gt;ActsAsVotable::Vote</title>
<path fill="none" stroke="#8b192c" d="M124.669,-143.791C128.478,-142.759 132.294,-141.808 136,-141 199.018,-127.26 221.683,-150.552 280,-123 301.035,-113.062 300.937,-102.814 318,-87 334.097,-72.0807 352.336,-55.5364 366.797,-42.5024"/>
<ellipse fill="none" stroke="#8b192c" cx="120.747" cy="-144.908" rx="4.00001" ry="4.00001"/>
<polygon fill="#8b192c" stroke="#8b192c" points="366.972,-42.3451 377.415,-38.9997 370.688,-39 374.404,-35.655 374.404,-35.655 374.404,-35.655 370.688,-39 371.394,-32.3103 366.972,-42.3451 366.972,-42.3451"/>
<text text-anchor="middle" x="332.5" y="-101.3" font-family="Times,serif" font-size="14.00">votes</text>
</g>
<!-- Vidguk&#45;&gt;ActsAsVotable::Vote -->
<g id="edge11" class="edge"><title>Vidguk&#45;&gt;ActsAsVotable::Vote</title>
<path fill="none" stroke="#dd562c" d="M393,-78.6937C393,-68.5119 393,-56.7466 393,-46.3666"/>
<ellipse fill="none" stroke="#dd562c" cx="393" cy="-82.799" rx="4" ry="4"/>
<polygon fill="#dd562c" stroke="#dd562c" points="393,-46.1754 397.5,-36.1754 393,-41.1754 393,-36.1754 393,-36.1754 393,-36.1754 393,-41.1754 388.5,-36.1755 393,-46.1754 393,-46.1754"/>
<text text-anchor="middle" x="419" y="-57.8" font-family="Times,serif" font-size="14.00">votes_for</text>
</g>
<!-- Kritic&#45;&gt;ActsAsVotable::Vote -->
<g id="edge12" class="edge"><title>Kritic&#45;&gt;ActsAsVotable::Vote</title>
<path fill="none" stroke="#7994f2" d="M539.809,-87.0672C522.914,-76.8769 500.568,-63.9877 480,-54 468.328,-48.3324 455.492,-42.8016 443.348,-37.8716"/>
<ellipse fill="none" stroke="#7994f2" cx="543.277" cy="-89.1751" rx="4.00002" ry="4.00002"/>
<polygon fill="#7994f2" stroke="#7994f2" points="443.079,-37.7643 435.461,-29.8765 438.435,-35.91 433.792,-34.0556 433.792,-34.0556 433.792,-34.0556 438.435,-35.91 432.123,-38.2347 443.079,-37.7643 443.079,-37.7643"/>
<text text-anchor="middle" x="532" y="-57.8" font-family="Times,serif" font-size="14.00">votes_for</text>
</g>
<!-- LineItem -->
<g id="node11" class="node"><title>LineItem</title>
<ellipse fill="none" stroke="black" cx="1101" cy="-321" rx="43.5923" ry="18"/>
<text text-anchor="middle" x="1101" y="-317.3" font-family="Times,serif" font-size="14.00">LineItem</text>
</g>
<!-- Zhanr -->
<g id="node12" class="node"><title>Zhanr</title>
<ellipse fill="none" stroke="black" cx="567" cy="-321" rx="31.6951" ry="18"/>
<text text-anchor="middle" x="567" y="-317.3" font-family="Times,serif" font-size="14.00">Zhanr</text>
</g>
<!-- Zhanr&#45;&gt;Book -->
<g id="edge13" class="edge"><title>Zhanr&#45;&gt;Book</title>
<path fill="none" stroke="#0f0f12" d="M567,-294.795C567,-278.735 567,-257.927 567,-241.45"/>
<ellipse fill="none" stroke="#0f0f12" cx="567" cy="-298.969" rx="4" ry="4"/>
<polygon fill="#0f0f12" stroke="#0f0f12" points="567,-241.341 571.5,-231.341 567,-236.341 567,-231.341 567,-231.341 567,-231.341 567,-236.341 562.5,-231.341 567,-241.341 567,-241.341"/>
</g>
</g>
</svg>
