<?xml version="1.0" encoding="UTF-8" standalone="no"?>
<!DOCTYPE svg PUBLIC "-//W3C//DTD SVG 1.1//EN"
 "http://www.w3.org/Graphics/SVG/1.1/DTD/svg11.dtd">
<!-- Generated by graphviz version 2.38.0 (20140413.2041)
 -->
<!-- Title: models_diagram Pages: 1 -->
<svg width="1473pt" height="1150pt"
 viewBox="0.00 0.00 1472.50 1150.00" xmlns="http://www.w3.org/2000/svg" xmlns:xlink="http://www.w3.org/1999/xlink">
<g id="graph0" class="graph" transform="scale(1 1) rotate(0) translate(4 1146)">
<title>models_diagram</title>
<polygon fill="none" stroke="none" points="-4,4 -4,-1146 1468.5,-1146 1468.5,4 -4,4"/>
<!-- _diagram_info -->
<g id="node1" class="node"><title>_diagram_info</title>
<text text-anchor="start" x="8" y="-1023.1" font-family="Times,serif" font-size="13.00">Models diagram</text>
<text text-anchor="start" x="8" y="-1009.1" font-family="Times,serif" font-size="13.00">Date: Jun 04 2018 &#45; 20:24</text>
<text text-anchor="start" x="8" y="-995.1" font-family="Times,serif" font-size="13.00">Migration version: 20180505174830</text>
<text text-anchor="start" x="8" y="-981.1" font-family="Times,serif" font-size="13.00">Generated by RailRoady 1.5.3</text>
<text text-anchor="start" x="8" y="-967.1" font-family="Times,serif" font-size="13.00">http://railroady.prestonlee.com</text>
</g>
<!-- Auth -->
<g id="node2" class="node"><title>Auth</title>
<path fill="none" stroke="black" d="M202.5,-95C202.5,-95 309.5,-95 309.5,-95 315.5,-95 321.5,-101 321.5,-107 321.5,-107 321.5,-204 321.5,-204 321.5,-210 315.5,-216 309.5,-216 309.5,-216 202.5,-216 202.5,-216 196.5,-216 190.5,-210 190.5,-204 190.5,-204 190.5,-107 190.5,-107 190.5,-101 196.5,-95 202.5,-95"/>
<text text-anchor="middle" x="256" y="-200.8" font-family="Times,serif" font-size="14.00">Auth</text>
<polyline fill="none" stroke="black" points="190.5,-193 321.5,-193 "/>
<text text-anchor="start" x="198.5" y="-177.8" font-family="Times,serif" font-size="14.00">id :INTEGER</text>
<text text-anchor="start" x="198.5" y="-162.8" font-family="Times,serif" font-size="14.00">auth :varchar</text>
<text text-anchor="start" x="198.5" y="-147.8" font-family="Times,serif" font-size="14.00">book :varchar</text>
<text text-anchor="start" x="198.5" y="-132.8" font-family="Times,serif" font-size="14.00">biography :varchar</text>
<text text-anchor="start" x="198.5" y="-117.8" font-family="Times,serif" font-size="14.00">created_at :datetime</text>
<text text-anchor="start" x="198.5" y="-102.8" font-family="Times,serif" font-size="14.00">updated_at :datetime</text>
</g>
<!-- ActsAsVotable::Vote -->
<g id="node13" class="node"><title>ActsAsVotable::Vote</title>
<ellipse fill="none" stroke="black" cx="471" cy="-18" rx="86.3847" ry="18"/>
<text text-anchor="middle" x="471" y="-14.3" font-family="Times,serif" font-size="14.00">ActsAsVotable::Vote</text>
</g>
<!-- Auth&#45;&gt;ActsAsVotable::Vote -->
<g id="edge1" class="edge"><title>Auth&#45;&gt;ActsAsVotable::Vote</title>
<path fill="none" stroke="#378128" d="M269.127,-87.4493C274.374,-74.8272 281.719,-62.836 292,-54 306.274,-41.7323 345.889,-33.3108 384.233,-27.8087"/>
<ellipse fill="none" stroke="#378128" cx="267.698" cy="-91.1971" rx="4.00001" ry="4.00001"/>
<polygon fill="#378128" stroke="#378128" points="384.556,-27.7644 395.076,-30.8611 389.51,-27.0837 394.463,-26.403 394.463,-26.403 394.463,-26.403 389.51,-27.0837 393.851,-21.9449 384.556,-27.7644 384.556,-27.7644"/>
<text text-anchor="middle" x="318" y="-57.8" font-family="Times,serif" font-size="14.00">votes_for</text>
</g>
<!-- AdminUser -->
<g id="node3" class="node"><title>AdminUser</title>
<path fill="none" stroke="black" d="M805,-885.5C805,-885.5 981,-885.5 981,-885.5 987,-885.5 993,-891.5 993,-897.5 993,-897.5 993,-1099.5 993,-1099.5 993,-1105.5 987,-1111.5 981,-1111.5 981,-1111.5 805,-1111.5 805,-1111.5 799,-1111.5 793,-1105.5 793,-1099.5 793,-1099.5 793,-897.5 793,-897.5 793,-891.5 799,-885.5 805,-885.5"/>
<text text-anchor="middle" x="893" y="-1096.3" font-family="Times,serif" font-size="14.00">AdminUser</text>
<polyline fill="none" stroke="black" points="793,-1088.5 993,-1088.5 "/>
<text text-anchor="start" x="801" y="-1073.3" font-family="Times,serif" font-size="14.00">id :INTEGER</text>
<text text-anchor="start" x="801" y="-1058.3" font-family="Times,serif" font-size="14.00">email :varchar</text>
<text text-anchor="start" x="801" y="-1043.3" font-family="Times,serif" font-size="14.00">encrypted_password :varchar</text>
<text text-anchor="start" x="801" y="-1028.3" font-family="Times,serif" font-size="14.00">reset_password_token :varchar</text>
<text text-anchor="start" x="801" y="-1013.3" font-family="Times,serif" font-size="14.00">reset_password_sent_at :datetime</text>
<text text-anchor="start" x="801" y="-998.3" font-family="Times,serif" font-size="14.00">remember_created_at :datetime</text>
<text text-anchor="start" x="801" y="-983.3" font-family="Times,serif" font-size="14.00">sign_in_count :integer</text>
<text text-anchor="start" x="801" y="-968.3" font-family="Times,serif" font-size="14.00">current_sign_in_at :datetime</text>
<text text-anchor="start" x="801" y="-953.3" font-family="Times,serif" font-size="14.00">last_sign_in_at :datetime</text>
<text text-anchor="start" x="801" y="-938.3" font-family="Times,serif" font-size="14.00">current_sign_in_ip :varchar</text>
<text text-anchor="start" x="801" y="-923.3" font-family="Times,serif" font-size="14.00">last_sign_in_ip :varchar</text>
<text text-anchor="start" x="801" y="-908.3" font-family="Times,serif" font-size="14.00">created_at :datetime</text>
<text text-anchor="start" x="801" y="-893.3" font-family="Times,serif" font-size="14.00">updated_at :datetime</text>
</g>
<!-- User -->
<g id="node4" class="node"><title>User</title>
<path fill="none" stroke="black" d="M244,-855.5C244,-855.5 420,-855.5 420,-855.5 426,-855.5 432,-861.5 432,-867.5 432,-867.5 432,-1129.5 432,-1129.5 432,-1135.5 426,-1141.5 420,-1141.5 420,-1141.5 244,-1141.5 244,-1141.5 238,-1141.5 232,-1135.5 232,-1129.5 232,-1129.5 232,-867.5 232,-867.5 232,-861.5 238,-855.5 244,-855.5"/>
<text text-anchor="middle" x="332" y="-1126.3" font-family="Times,serif" font-size="14.00">User</text>
<polyline fill="none" stroke="black" points="232,-1118.5 432,-1118.5 "/>
<text text-anchor="start" x="240" y="-1103.3" font-family="Times,serif" font-size="14.00">id :INTEGER</text>
<text text-anchor="start" x="240" y="-1088.3" font-family="Times,serif" font-size="14.00">email :varchar</text>
<text text-anchor="start" x="240" y="-1073.3" font-family="Times,serif" font-size="14.00">encrypted_password :varchar</text>
<text text-anchor="start" x="240" y="-1058.3" font-family="Times,serif" font-size="14.00">reset_password_token :varchar</text>
<text text-anchor="start" x="240" y="-1043.3" font-family="Times,serif" font-size="14.00">reset_password_sent_at :datetime</text>
<text text-anchor="start" x="240" y="-1028.3" font-family="Times,serif" font-size="14.00">remember_created_at :datetime</text>
<text text-anchor="start" x="240" y="-1013.3" font-family="Times,serif" font-size="14.00">sign_in_count :integer</text>
<text text-anchor="start" x="240" y="-998.3" font-family="Times,serif" font-size="14.00">current_sign_in_at :datetime</text>
<text text-anchor="start" x="240" y="-983.3" font-family="Times,serif" font-size="14.00">last_sign_in_at :datetime</text>
<text text-anchor="start" x="240" y="-968.3" font-family="Times,serif" font-size="14.00">current_sign_in_ip :varchar</text>
<text text-anchor="start" x="240" y="-953.3" font-family="Times,serif" font-size="14.00">last_sign_in_ip :varchar</text>
<text text-anchor="start" x="240" y="-938.3" font-family="Times,serif" font-size="14.00">created_at :datetime</text>
<text text-anchor="start" x="240" y="-923.3" font-family="Times,serif" font-size="14.00">updated_at :datetime</text>
<text text-anchor="start" x="240" y="-908.3" font-family="Times,serif" font-size="14.00">provider :varchar</text>
<text text-anchor="start" x="240" y="-893.3" font-family="Times,serif" font-size="14.00">uid :varchar</text>
<text text-anchor="start" x="240" y="-878.3" font-family="Times,serif" font-size="14.00">name :varchar</text>
<text text-anchor="start" x="240" y="-863.3" font-family="Times,serif" font-size="14.00">image :text</text>
</g>
<!-- Book -->
<g id="node7" class="node"><title>Book</title>
<path fill="none" stroke="black" d="M622.5,-457.5C622.5,-457.5 795.5,-457.5 795.5,-457.5 801.5,-457.5 807.5,-463.5 807.5,-469.5 807.5,-469.5 807.5,-791.5 807.5,-791.5 807.5,-797.5 801.5,-803.5 795.5,-803.5 795.5,-803.5 622.5,-803.5 622.5,-803.5 616.5,-803.5 610.5,-797.5 610.5,-791.5 610.5,-791.5 610.5,-469.5 610.5,-469.5 610.5,-463.5 616.5,-457.5 622.5,-457.5"/>
<text text-anchor="middle" x="709" y="-788.3" font-family="Times,serif" font-size="14.00">Book</text>
<polyline fill="none" stroke="black" points="610.5,-780.5 807.5,-780.5 "/>
<text text-anchor="start" x="618.5" y="-765.3" font-family="Times,serif" font-size="14.00">id :INTEGER</text>
<text text-anchor="start" x="618.5" y="-750.3" font-family="Times,serif" font-size="14.00">title :varchar</text>
<text text-anchor="start" x="618.5" y="-735.3" font-family="Times,serif" font-size="14.00">auth :varchar</text>
<text text-anchor="start" x="618.5" y="-720.3" font-family="Times,serif" font-size="14.00">zhanr :varchar</text>
<text text-anchor="start" x="618.5" y="-705.3" font-family="Times,serif" font-size="14.00">pages_qty :varchar</text>
<text text-anchor="start" x="618.5" y="-690.3" font-family="Times,serif" font-size="14.00">description :text</text>
<text text-anchor="start" x="618.5" y="-675.3" font-family="Times,serif" font-size="14.00">mini_description :text</text>
<text text-anchor="start" x="618.5" y="-660.3" font-family="Times,serif" font-size="14.00">likes_qty :integer</text>
<text text-anchor="start" x="618.5" y="-645.3" font-family="Times,serif" font-size="14.00">dislikes_qty :integer</text>
<text text-anchor="start" x="618.5" y="-630.3" font-family="Times,serif" font-size="14.00">image_url :varchar</text>
<text text-anchor="start" x="618.5" y="-615.3" font-family="Times,serif" font-size="14.00">url_to_book :varchar</text>
<text text-anchor="start" x="618.5" y="-600.3" font-family="Times,serif" font-size="14.00">name_of_file :varchar</text>
<text text-anchor="start" x="618.5" y="-585.3" font-family="Times,serif" font-size="14.00">language :varchar</text>
<text text-anchor="start" x="618.5" y="-570.3" font-family="Times,serif" font-size="14.00">rozshirennya :varchar</text>
<text text-anchor="start" x="618.5" y="-555.3" font-family="Times,serif" font-size="14.00">origin_url_to_book :varchar</text>
<text text-anchor="start" x="618.5" y="-540.3" font-family="Times,serif" font-size="14.00">created_at :datetime</text>
<text text-anchor="start" x="618.5" y="-525.3" font-family="Times,serif" font-size="14.00">updated_at :datetime</text>
<text text-anchor="start" x="618.5" y="-510.3" font-family="Times,serif" font-size="14.00">image_url_file_name :varchar</text>
<text text-anchor="start" x="618.5" y="-495.3" font-family="Times,serif" font-size="14.00">image_url_content_type :varchar</text>
<text text-anchor="start" x="618.5" y="-480.3" font-family="Times,serif" font-size="14.00">image_url_file_size :integer</text>
<text text-anchor="start" x="618.5" y="-465.3" font-family="Times,serif" font-size="14.00">image_url_updated_at :datetime</text>
</g>
<!-- User&#45;&gt;Book -->
<g id="edge4" class="edge"><title>User&#45;&gt;Book</title>
<path fill="none" stroke="#86ace8" d="M439.284,-934.214C491.856,-899.92 553.829,-854.301 601,-804 601.884,-803.058 602.764,-802.107 603.641,-801.149"/>
<ellipse fill="none" stroke="#86ace8" cx="435.619" cy="-936.589" rx="4.00002" ry="4.00002"/>
<polygon fill="#86ace8" stroke="#86ace8" points="603.658,-801.13 613.664,-796.643 606.979,-797.392 610.3,-793.654 610.3,-793.654 610.3,-793.654 606.979,-797.392 606.936,-790.665 603.658,-801.13 603.658,-801.13"/>
</g>
<!-- Userparam -->
<g id="node8" class="node"><title>Userparam</title>
<path fill="none" stroke="black" d="M43,-242.5C43,-242.5 193,-242.5 193,-242.5 199,-242.5 205,-248.5 205,-254.5 205,-254.5 205,-426.5 205,-426.5 205,-432.5 199,-438.5 193,-438.5 193,-438.5 43,-438.5 43,-438.5 37,-438.5 31,-432.5 31,-426.5 31,-426.5 31,-254.5 31,-254.5 31,-248.5 37,-242.5 43,-242.5"/>
<text text-anchor="middle" x="118" y="-423.3" font-family="Times,serif" font-size="14.00">Userparam</text>
<polyline fill="none" stroke="black" points="31,-415.5 205,-415.5 "/>
<text text-anchor="start" x="39" y="-400.3" font-family="Times,serif" font-size="14.00">id :INTEGER</text>
<text text-anchor="start" x="39" y="-385.3" font-family="Times,serif" font-size="14.00">firstname :varchar</text>
<text text-anchor="start" x="39" y="-370.3" font-family="Times,serif" font-size="14.00">lastname :varchar</text>
<text text-anchor="start" x="39" y="-355.3" font-family="Times,serif" font-size="14.00">city :varchar</text>
<text text-anchor="start" x="39" y="-340.3" font-family="Times,serif" font-size="14.00">user_id :integer</text>
<text text-anchor="start" x="39" y="-325.3" font-family="Times,serif" font-size="14.00">created_at :datetime</text>
<text text-anchor="start" x="39" y="-310.3" font-family="Times,serif" font-size="14.00">updated_at :datetime</text>
<text text-anchor="start" x="39" y="-295.3" font-family="Times,serif" font-size="14.00">avatar_file_name :varchar</text>
<text text-anchor="start" x="39" y="-280.3" font-family="Times,serif" font-size="14.00">avatar_content_type :varchar</text>
<text text-anchor="start" x="39" y="-265.3" font-family="Times,serif" font-size="14.00">avatar_file_size :integer</text>
<text text-anchor="start" x="39" y="-250.3" font-family="Times,serif" font-size="14.00">avatar_updated_at :datetime</text>
</g>
<!-- User&#45;&gt;Userparam -->
<g id="edge6" class="edge"><title>User&#45;&gt;Userparam</title>
<path fill="none" stroke="#892fc2" d="M226.575,-859.225C225.381,-857.806 224.189,-856.397 223,-855 215.87,-846.619 210.947,-846.829 206,-837 143.407,-712.64 124.641,-551.115 119.393,-446.876"/>
<ellipse fill="none" stroke="#892fc2" cx="229.257" cy="-862.434" rx="4.00002" ry="4.00002"/>
<ellipse fill="#892fc2" stroke="#892fc2" cx="119.201" cy="-442.843" rx="4" ry="4"/>
</g>
<!-- Vidguk -->
<g id="node9" class="node"><title>Vidguk</title>
<path fill="none" stroke="black" d="M417.5,-87.5C417.5,-87.5 524.5,-87.5 524.5,-87.5 530.5,-87.5 536.5,-93.5 536.5,-99.5 536.5,-99.5 536.5,-211.5 536.5,-211.5 536.5,-217.5 530.5,-223.5 524.5,-223.5 524.5,-223.5 417.5,-223.5 417.5,-223.5 411.5,-223.5 405.5,-217.5 405.5,-211.5 405.5,-211.5 405.5,-99.5 405.5,-99.5 405.5,-93.5 411.5,-87.5 417.5,-87.5"/>
<text text-anchor="middle" x="471" y="-208.3" font-family="Times,serif" font-size="14.00">Vidguk</text>
<polyline fill="none" stroke="black" points="405.5,-200.5 536.5,-200.5 "/>
<text text-anchor="start" x="413.5" y="-185.3" font-family="Times,serif" font-size="14.00">id :INTEGER</text>
<text text-anchor="start" x="413.5" y="-170.3" font-family="Times,serif" font-size="14.00">name :varchar</text>
<text text-anchor="start" x="413.5" y="-155.3" font-family="Times,serif" font-size="14.00">title_book :varchar</text>
<text text-anchor="start" x="413.5" y="-140.3" font-family="Times,serif" font-size="14.00">vidguk :varchar</text>
<text text-anchor="start" x="413.5" y="-125.3" font-family="Times,serif" font-size="14.00">date :varchar</text>
<text text-anchor="start" x="413.5" y="-110.3" font-family="Times,serif" font-size="14.00">created_at :datetime</text>
<text text-anchor="start" x="413.5" y="-95.3" font-family="Times,serif" font-size="14.00">updated_at :datetime</text>
</g>
<!-- User&#45;&gt;Vidguk -->
<g id="edge5" class="edge"><title>User&#45;&gt;Vidguk</title>
<path fill="none" stroke="#29e1c8" d="M252.185,-847.768C246.865,-833.272 242.314,-818.545 239,-804 204.741,-653.631 189.211,-602.964 239,-457 255.963,-407.271 341.789,-302.922 404.12,-231.28"/>
<ellipse fill="none" stroke="#29e1c8" cx="253.623" cy="-851.582" rx="4.00001" ry="4.00001"/>
<polygon fill="#29e1c8" stroke="#29e1c8" points="404.261,-231.118 414.226,-226.542 407.548,-227.351 410.835,-223.583 410.835,-223.583 410.835,-223.583 407.548,-227.351 407.444,-220.625 404.261,-231.118 404.261,-231.118"/>
</g>
<!-- Mailboxer::Message -->
<g id="node14" class="node"><title>Mailboxer::Message</title>
<ellipse fill="none" stroke="black" cx="332" cy="-630.5" rx="83.6854" ry="18"/>
<text text-anchor="middle" x="332" y="-626.8" font-family="Times,serif" font-size="14.00">Mailboxer::Message</text>
</g>
<!-- User&#45;&gt;Mailboxer::Message -->
<g id="edge2" class="edge"><title>User&#45;&gt;Mailboxer::Message</title>
<path fill="none" stroke="#1c86f0" d="M332,-847.041C332,-776.26 332,-698.768 332,-658.776"/>
<ellipse fill="none" stroke="#1c86f0" cx="332" cy="-851.471" rx="4" ry="4"/>
<polygon fill="#1c86f0" stroke="#1c86f0" points="332,-658.527 336.5,-648.527 332,-653.527 332,-648.527 332,-648.527 332,-648.527 332,-653.527 327.5,-648.527 332,-658.527 332,-658.527"/>
<text text-anchor="middle" x="358" y="-825.8" font-family="Times,serif" font-size="14.00">messages</text>
</g>
<!-- Mailboxer::Receipt -->
<g id="node15" class="node"><title>Mailboxer::Receipt</title>
<ellipse fill="none" stroke="black" cx="513" cy="-630.5" rx="79.0865" ry="18"/>
<text text-anchor="middle" x="513" y="-626.8" font-family="Times,serif" font-size="14.00">Mailboxer::Receipt</text>
</g>
<!-- User&#45;&gt;Mailboxer::Receipt -->
<g id="edge3" class="edge"><title>User&#45;&gt;Mailboxer::Receipt</title>
<path fill="none" stroke="#71595f" d="M405.942,-847.981C441.433,-776.215 480.441,-697.337 500.119,-657.546"/>
<ellipse fill="none" stroke="#71595f" cx="404.012" cy="-851.885" rx="4.00002" ry="4.00002"/>
<polygon fill="#71595f" stroke="#71595f" points="500.147,-657.491 508.613,-650.522 502.363,-653.009 504.58,-648.527 504.58,-648.527 504.58,-648.527 502.363,-653.009 500.546,-646.532 500.147,-657.491 500.147,-657.491"/>
<text text-anchor="middle" x="439.5" y="-825.8" font-family="Times,serif" font-size="14.00">receipts</text>
</g>
<!-- AboutProgram -->
<g id="node5" class="node"><title>AboutProgram</title>
<path fill="none" stroke="black" d="M1023.5,-930.5C1023.5,-930.5 1130.5,-930.5 1130.5,-930.5 1136.5,-930.5 1142.5,-936.5 1142.5,-942.5 1142.5,-942.5 1142.5,-1054.5 1142.5,-1054.5 1142.5,-1060.5 1136.5,-1066.5 1130.5,-1066.5 1130.5,-1066.5 1023.5,-1066.5 1023.5,-1066.5 1017.5,-1066.5 1011.5,-1060.5 1011.5,-1054.5 1011.5,-1054.5 1011.5,-942.5 1011.5,-942.5 1011.5,-936.5 1017.5,-930.5 1023.5,-930.5"/>
<text text-anchor="middle" x="1077" y="-1051.3" font-family="Times,serif" font-size="14.00">AboutProgram</text>
<polyline fill="none" stroke="black" points="1011.5,-1043.5 1142.5,-1043.5 "/>
<text text-anchor="start" x="1019.5" y="-1028.3" font-family="Times,serif" font-size="14.00">id :INTEGER</text>
<text text-anchor="start" x="1019.5" y="-1013.3" font-family="Times,serif" font-size="14.00">version :varchar</text>
<text text-anchor="start" x="1019.5" y="-998.3" font-family="Times,serif" font-size="14.00">subversion :varchar</text>
<text text-anchor="start" x="1019.5" y="-983.3" font-family="Times,serif" font-size="14.00">made :varchar</text>
<text text-anchor="start" x="1019.5" y="-968.3" font-family="Times,serif" font-size="14.00">date :varchar</text>
<text text-anchor="start" x="1019.5" y="-953.3" font-family="Times,serif" font-size="14.00">created_at :datetime</text>
<text text-anchor="start" x="1019.5" y="-938.3" font-family="Times,serif" font-size="14.00">updated_at :datetime</text>
</g>
<!-- ApplicationRecord -->
<g id="node6" class="node"><title>ApplicationRecord</title>
<ellipse fill="none" stroke="black" cx="1238" cy="-998.5" rx="77.1866" ry="18"/>
<text text-anchor="middle" x="1238" y="-994.8" font-family="Times,serif" font-size="14.00">ApplicationRecord</text>
</g>
<!-- Book&#45;&gt;Vidguk -->
<g id="edge8" class="edge"><title>Book&#45;&gt;Vidguk</title>
<path fill="none" stroke="#a5902c" d="M604.596,-460.152C603.406,-459.085 602.208,-458.034 601,-457 585.574,-443.791 572.603,-454.08 559,-439 507.829,-382.272 486.413,-296.114 477.451,-233.865"/>
<ellipse fill="none" stroke="#a5902c" cx="607.539" cy="-462.892" rx="4.00002" ry="4.00002"/>
<polygon fill="#a5902c" stroke="#a5902c" points="477.416,-233.609 480.525,-223.093 476.741,-228.655 476.067,-223.7 476.067,-223.7 476.067,-223.7 476.741,-228.655 471.608,-224.307 477.416,-233.609 477.416,-233.609"/>
</g>
<!-- Kritic -->
<g id="node10" class="node"><title>Kritic</title>
<path fill="none" stroke="black" d="M655.5,-87.5C655.5,-87.5 762.5,-87.5 762.5,-87.5 768.5,-87.5 774.5,-93.5 774.5,-99.5 774.5,-99.5 774.5,-211.5 774.5,-211.5 774.5,-217.5 768.5,-223.5 762.5,-223.5 762.5,-223.5 655.5,-223.5 655.5,-223.5 649.5,-223.5 643.5,-217.5 643.5,-211.5 643.5,-211.5 643.5,-99.5 643.5,-99.5 643.5,-93.5 649.5,-87.5 655.5,-87.5"/>
<text text-anchor="middle" x="709" y="-208.3" font-family="Times,serif" font-size="14.00">Kritic</text>
<polyline fill="none" stroke="black" points="643.5,-200.5 774.5,-200.5 "/>
<text text-anchor="start" x="651.5" y="-185.3" font-family="Times,serif" font-size="14.00">id :INTEGER</text>
<text text-anchor="start" x="651.5" y="-170.3" font-family="Times,serif" font-size="14.00">name :varchar</text>
<text text-anchor="start" x="651.5" y="-155.3" font-family="Times,serif" font-size="14.00">title_book :varchar</text>
<text text-anchor="start" x="651.5" y="-140.3" font-family="Times,serif" font-size="14.00">recensiya :varchar</text>
<text text-anchor="start" x="651.5" y="-125.3" font-family="Times,serif" font-size="14.00">ocinka :text</text>
<text text-anchor="start" x="651.5" y="-110.3" font-family="Times,serif" font-size="14.00">created_at :datetime</text>
<text text-anchor="start" x="651.5" y="-95.3" font-family="Times,serif" font-size="14.00">updated_at :datetime</text>
</g>
<!-- Book&#45;&gt;Kritic -->
<g id="edge9" class="edge"><title>Book&#45;&gt;Kritic</title>
<path fill="none" stroke="#7ba69f" d="M709,-449.286C709,-374.707 709,-292.199 709,-233.831"/>
<ellipse fill="none" stroke="#7ba69f" cx="709" cy="-453.398" rx="4" ry="4"/>
<polygon fill="#7ba69f" stroke="#7ba69f" points="709,-233.585 713.5,-223.585 709,-228.585 709,-223.585 709,-223.585 709,-223.585 709,-228.585 704.5,-223.585 709,-233.585 709,-233.585"/>
</g>
<!-- Book&#45;&gt;ActsAsVotable::Vote -->
<g id="edge7" class="edge"><title>Book&#45;&gt;ActsAsVotable::Vote</title>
<path fill="none" stroke="#a25f8d" d="M651.393,-449.22C629.402,-379.093 604.471,-297.964 583,-224 565.417,-163.43 570.159,-145.26 546,-87 539.517,-71.3669 538.749,-66.1816 527,-54 522.241,-49.0654 516.65,-44.5264 510.875,-40.4675"/>
<ellipse fill="none" stroke="#a25f8d" cx="652.725" cy="-453.462" rx="4.00001" ry="4.00001"/>
<polygon fill="#a25f8d" stroke="#a25f8d" points="510.716,-40.3636 504.828,-31.1127 506.537,-37.6188 502.358,-34.8741 502.358,-34.8741 502.358,-34.8741 506.537,-37.6188 499.888,-38.6354 510.716,-40.3636 510.716,-40.3636"/>
<text text-anchor="middle" x="609" y="-151.8" font-family="Times,serif" font-size="14.00">votes_for</text>
</g>
<!-- Userparam&#45;&gt;ActsAsVotable::Vote -->
<g id="edge10" class="edge"><title>Userparam&#45;&gt;ActsAsVotable::Vote</title>
<path fill="none" stroke="#baa8e6" d="M212.524,-240.646C260.301,-220.764 291.372,-258.385 330,-224 377.11,-182.065 329.957,-138.046 367,-87 381.9,-66.4678 405.056,-50.45 425.74,-39.1317"/>
<ellipse fill="none" stroke="#baa8e6" cx="208.648" cy="-242.474" rx="4.00002" ry="4.00002"/>
<polygon fill="#baa8e6" stroke="#baa8e6" points="425.87,-39.0633 436.816,-38.401 430.298,-36.7399 434.725,-34.4164 434.725,-34.4164 434.725,-34.4164 430.298,-36.7399 432.634,-30.4318 425.87,-39.0633 425.87,-39.0633"/>
<text text-anchor="middle" x="381.5" y="-151.8" font-family="Times,serif" font-size="14.00">votes</text>
</g>
<!-- Vidguk&#45;&gt;ActsAsVotable::Vote -->
<g id="edge11" class="edge"><title>Vidguk&#45;&gt;ActsAsVotable::Vote</title>
<path fill="none" stroke="#0b22b1" d="M471,-78.7046C471,-67.0253 471,-55.6696 471,-46.0522"/>
<ellipse fill="none" stroke="#0b22b1" cx="471" cy="-83.147" rx="4" ry="4"/>
<polygon fill="#0b22b1" stroke="#0b22b1" points="471,-46.0079 475.5,-36.0079 471,-41.0079 471,-36.0079 471,-36.0079 471,-36.0079 471,-41.0079 466.5,-36.008 471,-46.0079 471,-46.0079"/>
<text text-anchor="middle" x="497" y="-57.8" font-family="Times,serif" font-size="14.00">votes_for</text>
</g>
<!-- Kritic&#45;&gt;ActsAsVotable::Vote -->
<g id="edge12" class="edge"><title>Kritic&#45;&gt;ActsAsVotable::Vote</title>
<path fill="none" stroke="#8379ac" d="M636.657,-86.6942C621.098,-74.5359 604.149,-62.9173 587,-54 571.633,-46.0093 554.15,-39.538 537.503,-34.4354"/>
<ellipse fill="none" stroke="#8379ac" cx="640.107" cy="-89.4405" rx="4.00002" ry="4.00002"/>
<polygon fill="#8379ac" stroke="#8379ac" points="537.415,-34.4093 529.09,-27.2709 532.618,-32.9987 527.821,-31.5881 527.821,-31.5881 527.821,-31.5881 532.618,-32.9987 526.551,-35.9053 537.415,-34.4093 537.415,-34.4093"/>
<text text-anchor="middle" x="635" y="-57.8" font-family="Times,serif" font-size="14.00">votes_for</text>
</g>
<!-- LineItem -->
<g id="node11" class="node"><title>LineItem</title>
<path fill="none" stroke="black" d="M1345.5,-953C1345.5,-953 1452.5,-953 1452.5,-953 1458.5,-953 1464.5,-959 1464.5,-965 1464.5,-965 1464.5,-1032 1464.5,-1032 1464.5,-1038 1458.5,-1044 1452.5,-1044 1452.5,-1044 1345.5,-1044 1345.5,-1044 1339.5,-1044 1333.5,-1038 1333.5,-1032 1333.5,-1032 1333.5,-965 1333.5,-965 1333.5,-959 1339.5,-953 1345.5,-953"/>
<text text-anchor="middle" x="1399" y="-1028.8" font-family="Times,serif" font-size="14.00">LineItem</text>
<polyline fill="none" stroke="black" points="1333.5,-1021 1464.5,-1021 "/>
<text text-anchor="start" x="1341.5" y="-1005.8" font-family="Times,serif" font-size="14.00">id :INTEGER</text>
<text text-anchor="start" x="1341.5" y="-990.8" font-family="Times,serif" font-size="14.00">id_book :integer</text>
<text text-anchor="start" x="1341.5" y="-975.8" font-family="Times,serif" font-size="14.00">created_at :datetime</text>
<text text-anchor="start" x="1341.5" y="-960.8" font-family="Times,serif" font-size="14.00">updated_at :datetime</text>
</g>
<!-- Zhanr -->
<g id="node12" class="node"><title>Zhanr</title>
<path fill="none" stroke="black" d="M655.5,-953C655.5,-953 762.5,-953 762.5,-953 768.5,-953 774.5,-959 774.5,-965 774.5,-965 774.5,-1032 774.5,-1032 774.5,-1038 768.5,-1044 762.5,-1044 762.5,-1044 655.5,-1044 655.5,-1044 649.5,-1044 643.5,-1038 643.5,-1032 643.5,-1032 643.5,-965 643.5,-965 643.5,-959 649.5,-953 655.5,-953"/>
<text text-anchor="middle" x="709" y="-1028.8" font-family="Times,serif" font-size="14.00">Zhanr</text>
<polyline fill="none" stroke="black" points="643.5,-1021 774.5,-1021 "/>
<text text-anchor="start" x="651.5" y="-1005.8" font-family="Times,serif" font-size="14.00">id :INTEGER</text>
<text text-anchor="start" x="651.5" y="-990.8" font-family="Times,serif" font-size="14.00">zhanr :varchar</text>
<text text-anchor="start" x="651.5" y="-975.8" font-family="Times,serif" font-size="14.00">created_at :datetime</text>
<text text-anchor="start" x="651.5" y="-960.8" font-family="Times,serif" font-size="14.00">updated_at :datetime</text>
</g>
<!-- Zhanr&#45;&gt;Book -->
<g id="edge13" class="edge"><title>Zhanr&#45;&gt;Book</title>
<path fill="none" stroke="#c342f9" d="M709,-944.779C709,-909.912 709,-861.942 709,-814.015"/>
<ellipse fill="none" stroke="#c342f9" cx="709" cy="-948.987" rx="4" ry="4"/>
<polygon fill="#c342f9" stroke="#c342f9" points="709,-813.794 713.5,-803.794 709,-808.794 709,-803.794 709,-803.794 709,-803.794 709,-808.794 704.5,-803.794 709,-813.794 709,-813.794"/>
</g>
</g>
</svg>
